<svg width="635" height="86.2" viewBox="0 0 635 86.2" xmlns="http://www.w3.org/2000/svg"><g id="svgGroup" stroke-linecap="round" fill-rule="evenodd" font-size="9pt" stroke="#FFF" stroke-width="0.25mm" fill="none" style="stroke:#FFF;stroke-width:0.50mm;fill:none"><path d="M 6.4 66.8 L 6.4 13.7 A 1.399 1.399 0 0 0 5.984 12.875 Q 5.722 12.611 5.3 12.4 A 15.664 15.664 0 0 0 3.972 11.814 A 18.865 18.865 0 0 0 3.1 11.5 Q 1.9 11.1 0.95 10.65 Q 0.451 10.413 0.214 10.108 A 0.97 0.97 0 0 1 0 9.5 Q 0 9.01 0.234 8.119 A 15.979 15.979 0 0 1 0.35 7.7 A 2.044 2.044 0 0 1 0.605 7.133 Q 0.975 6.579 1.689 6.51 A 2.184 2.184 0 0 1 1.9 6.5 L 9.9 6.5 Q 10.967 6.5 11.611 7.065 A 2.089 2.089 0 0 1 11.65 7.1 A 7.674 7.674 0 0 1 12.137 7.596 Q 12.362 7.846 12.603 8.147 A 17.899 17.899 0 0 1 13.1 8.8 L 45.1 51.7 L 50.1 61.9 L 50.1 12 Q 49.684 11.751 48.854 11.501 A 14.442 14.442 0 0 0 48.5 11.4 Q 47.4 11.1 46.35 10.75 Q 45.3 10.4 44.5 9.95 Q 43.7 9.5 43.7 8.9 A 2.668 2.668 0 0 1 43.741 8.452 Q 43.819 7.998 44.043 7.418 A 8.528 8.528 0 0 1 44.05 7.4 Q 44.39 6.525 45.535 6.501 A 3.109 3.109 0 0 1 45.6 6.5 L 60.2 6.5 A 6.019 6.019 0 0 1 61.133 6.567 Q 61.611 6.642 61.99 6.802 A 2.34 2.34 0 0 1 62.8 7.35 Q 63.6 8.2 63.6 8.7 A 2.335 2.335 0 0 1 63.515 9.352 Q 63.295 10.111 62.5 10.4 A 13.834 13.834 0 0 1 61.183 10.803 A 17.589 17.589 0 0 1 60.05 11.05 A 9.749 9.749 0 0 0 58.395 11.504 A 8.304 8.304 0 0 0 57.6 11.85 Q 56.5 12.4 56.5 13.9 L 56.5 69.7 A 2.436 2.436 0 0 1 56.43 70.301 A 1.594 1.594 0 0 1 55.85 71.2 Q 55.2 71.7 54.25 71.95 Q 53.3 72.2 52.2 72.25 Q 51.1 72.3 50.2 72.3 L 18.9 31.6 L 12.6 20.3 L 12.6 64.9 A 3.158 3.158 0 0 0 12.687 65.669 A 1.872 1.872 0 0 0 13.7 66.95 A 8.771 8.771 0 0 0 15.41 67.586 A 10.456 10.456 0 0 0 16.15 67.75 A 17.068 17.068 0 0 1 17.59 68.079 A 13.427 13.427 0 0 1 18.6 68.4 A 1.706 1.706 0 0 1 19.237 68.793 Q 19.7 69.257 19.7 70.1 A 0.894 0.894 0 0 1 19.633 70.418 Q 19.469 70.845 18.901 71.448 A 3.881 3.881 0 0 1 18.9 71.45 A 2.378 2.378 0 0 1 18.009 72.031 Q 17.622 72.18 17.139 72.247 A 6.177 6.177 0 0 1 16.3 72.3 L 1.9 72.3 A 2.445 2.445 0 0 1 1.338 72.24 Q 0.61 72.068 0.35 71.4 A 8.559 8.559 0 0 1 0.345 71.386 Q 0.122 70.811 0.043 70.359 A 2.684 2.684 0 0 1 0 69.9 A 0.917 0.917 0 0 1 0.213 69.321 Q 0.325 69.179 0.497 69.047 A 2.591 2.591 0 0 1 0.8 68.85 A 9.319 9.319 0 0 1 1.721 68.4 A 12.352 12.352 0 0 1 2.65 68.05 Q 3.7 67.7 4.8 67.4 Q 5.715 67.151 6.215 66.901 A 2.736 2.736 0 0 0 6.4 66.8 Z M 471.5 67.2 L 471.5 6.4 Q 469.917 6.184 468.748 5.813 A 9.303 9.303 0 0 1 467.9 5.5 A 6.573 6.573 0 0 1 467.424 5.275 Q 466.641 4.862 466.521 4.448 A 0.533 0.533 0 0 1 466.5 4.3 Q 466.5 2.9 467.65 2.1 A 7.909 7.909 0 0 1 468.86 1.416 Q 469.62 1.066 470.55 0.8 A 18.383 18.383 0 0 1 473.758 0.194 A 20.652 20.652 0 0 1 474.25 0.15 A 56.725 56.725 0 0 1 475.87 0.047 Q 476.61 0.012 477.269 0.003 A 31.937 31.937 0 0 1 477.7 0 Q 478.5 0 479.15 0.1 A 1.009 1.009 0 0 1 479.611 0.286 Q 479.883 0.49 480 0.9 L 480 50.1 L 496.9 31.1 Q 496 30.9 494.9 30.75 A 12.261 12.261 0 0 1 493.726 30.534 A 9.68 9.68 0 0 1 492.9 30.3 Q 492.03 30.01 491.393 29.626 A 5.451 5.451 0 0 1 491.35 29.6 A 2.134 2.134 0 0 1 491.066 29.394 Q 490.7 29.075 490.7 28.7 Q 490.7 28.1 491.25 27.3 A 1.789 1.789 0 0 1 492.562 26.521 A 2.692 2.692 0 0 1 492.9 26.5 L 508 26.5 Q 509.308 26.5 510.024 26.707 A 2.228 2.228 0 0 1 510.4 26.85 Q 511.1 27.2 511.1 27.7 Q 511.1 29.16 509.92 29.919 A 3.594 3.594 0 0 1 509.5 30.15 A 10.673 10.673 0 0 1 506.528 31.033 A 12.299 12.299 0 0 1 506 31.1 L 493.3 43.5 L 508.3 66 Q 508.742 66.516 509.591 66.869 A 6.616 6.616 0 0 0 510.25 67.1 Q 511.6 67.5 512.95 67.85 Q 514.3 68.2 515.35 68.65 A 2.181 2.181 0 0 1 515.858 68.947 A 1.404 1.404 0 0 1 516.4 70.1 A 0.894 0.894 0 0 1 516.333 70.418 Q 516.169 70.845 515.601 71.448 A 3.881 3.881 0 0 1 515.6 71.45 A 2.378 2.378 0 0 1 514.709 72.031 Q 514.322 72.18 513.839 72.247 A 6.177 6.177 0 0 1 513 72.3 L 496.8 72.3 A 3.172 3.172 0 0 1 496.269 72.259 Q 495.992 72.212 495.781 72.11 A 1.11 1.11 0 0 1 495.25 71.6 A 3.792 3.792 0 0 1 495.027 71.058 Q 494.93 70.754 494.907 70.471 A 2.137 2.137 0 0 1 494.9 70.3 Q 494.9 69.499 495.851 69.094 A 3.296 3.296 0 0 1 496.1 69 L 499.1 67.7 L 487.5 49.1 L 480 56.6 L 480 64.9 A 3.313 3.313 0 0 0 480.081 65.659 Q 480.197 66.155 480.483 66.498 A 1.836 1.836 0 0 0 481.05 66.95 A 9.254 9.254 0 0 0 482.612 67.588 A 11.133 11.133 0 0 0 483.4 67.8 Q 484.7 68.1 485.75 68.5 Q 486.612 68.828 486.766 69.696 A 2.307 2.307 0 0 1 486.8 70.1 Q 486.8 72.22 483.642 72.297 A 9.951 9.951 0 0 1 483.4 72.3 L 468.1 72.3 A 3.172 3.172 0 0 1 467.569 72.259 Q 467.292 72.212 467.081 72.11 A 1.11 1.11 0 0 1 466.55 71.6 A 3.792 3.792 0 0 1 466.327 71.058 Q 466.23 70.754 466.207 70.471 A 2.137 2.137 0 0 1 466.2 70.3 Q 466.2 69.8 466.85 69.35 Q 467.5 68.9 468.4 68.5 Q 469.3 68.1 470.2 67.75 Q 471.066 67.413 471.469 67.215 A 4.764 4.764 0 0 0 471.5 67.2 Z M 152 67.2 L 152 6.4 A 19.048 19.048 0 0 1 150.718 6.183 Q 149.42 5.915 148.564 5.507 A 5.661 5.661 0 0 1 148.55 5.5 Q 147.335 4.917 147.301 4.333 A 0.577 0.577 0 0 1 147.3 4.3 Q 147.3 2.9 148.45 2.1 A 7.909 7.909 0 0 1 149.66 1.416 Q 150.42 1.066 151.35 0.8 A 18.383 18.383 0 0 1 154.558 0.194 A 20.652 20.652 0 0 1 155.05 0.15 A 56.725 56.725 0 0 1 156.67 0.047 Q 157.41 0.012 158.069 0.003 A 31.937 31.937 0 0 1 158.5 0 Q 159.3 0 159.95 0.1 A 1.009 1.009 0 0 1 160.411 0.286 Q 160.683 0.49 160.8 0.9 L 160.8 30.5 Q 164.2 28 168.05 26.3 A 20.251 20.251 0 0 1 175.701 24.61 A 23.431 23.431 0 0 1 176.4 24.6 A 24.047 24.047 0 0 1 180.766 24.984 A 20.752 20.752 0 0 1 182.75 25.45 A 7.467 7.467 0 0 1 187.25 29.013 A 9.65 9.65 0 0 1 187.3 29.1 L 187.1 29.1 A 12.436 12.436 0 0 1 188.534 31.316 A 9.277 9.277 0 0 1 189.45 34.25 A 39.821 39.821 0 0 1 189.795 38.773 A 36.122 36.122 0 0 1 189.8 39.4 L 189.8 64.9 A 2.889 2.889 0 0 0 189.9 65.688 A 1.91 1.91 0 0 0 191 66.95 A 10.212 10.212 0 0 0 192.854 67.586 A 12.124 12.124 0 0 0 193.65 67.75 A 20.034 20.034 0 0 1 195.202 68.079 A 15.96 15.96 0 0 1 196.3 68.4 A 1.964 1.964 0 0 1 196.92 68.727 Q 197.371 69.092 197.471 69.719 A 2.41 2.41 0 0 1 197.5 70.1 A 0.894 0.894 0 0 1 197.433 70.418 Q 197.269 70.845 196.701 71.448 A 3.881 3.881 0 0 1 196.7 71.45 A 2.378 2.378 0 0 1 195.809 72.031 Q 195.422 72.18 194.939 72.247 A 6.177 6.177 0 0 1 194.1 72.3 L 177.9 72.3 A 3.172 3.172 0 0 1 177.369 72.259 Q 177.092 72.212 176.881 72.11 A 1.11 1.11 0 0 1 176.35 71.6 A 3.792 3.792 0 0 1 176.127 71.058 Q 176.03 70.754 176.007 70.471 A 2.137 2.137 0 0 1 176 70.3 Q 176 69.8 176.65 69.35 A 6.497 6.497 0 0 1 177.411 68.9 A 8.79 8.79 0 0 1 178.2 68.55 Q 179.1 68.2 179.95 67.85 Q 180.792 67.503 181.193 67.304 A 6.232 6.232 0 0 0 181.2 67.3 L 181.2 43.4 Q 181.2 37.594 179.549 34.609 A 7.192 7.192 0 0 0 178.8 33.5 A 7.76 7.76 0 0 0 173.136 30.626 A 10.446 10.446 0 0 0 172.4 30.6 Q 169.4 30.6 166.25 31.65 Q 163.1 32.7 160.8 34.7 L 160.8 64.9 A 2.889 2.889 0 0 0 160.9 65.688 A 1.91 1.91 0 0 0 162 66.95 A 9.85 9.85 0 0 0 163.617 67.52 A 12.25 12.25 0 0 0 164.7 67.75 Q 166.2 68 167.4 68.4 A 1.964 1.964 0 0 1 168.02 68.727 Q 168.471 69.092 168.571 69.719 A 2.41 2.41 0 0 1 168.6 70.1 Q 168.6 72.22 165.442 72.297 A 9.951 9.951 0 0 1 165.2 72.3 L 148.6 72.3 A 3.172 3.172 0 0 1 148.069 72.259 Q 147.792 72.212 147.581 72.11 A 1.11 1.11 0 0 1 147.05 71.6 A 3.792 3.792 0 0 1 146.827 71.058 Q 146.73 70.754 146.707 70.471 A 2.137 2.137 0 0 1 146.7 70.3 Q 146.7 69.8 147.35 69.35 Q 148 68.9 148.9 68.5 Q 149.8 68.1 150.7 67.75 Q 151.566 67.413 151.969 67.215 A 4.764 4.764 0 0 0 152 67.2 Z M 254.6 67.2 L 254.6 34.3 A 19.68 19.68 0 0 1 251.803 33.514 A 23.436 23.436 0 0 1 250.5 33 Q 248.4 32.1 248.4 31.4 Q 248.4 30.668 249.042 29.91 A 5.318 5.318 0 0 1 249.6 29.35 Q 250.8 28.3 252.55 27.5 A 24.419 24.419 0 0 1 255.681 26.328 A 27.455 27.455 0 0 1 256.3 26.15 A 18.187 18.187 0 0 1 257.73 25.815 Q 258.438 25.681 259.069 25.63 A 9.202 9.202 0 0 1 259.8 25.6 A 7.339 7.339 0 0 1 260.583 25.638 Q 261.357 25.722 261.765 25.988 A 0.936 0.936 0 0 1 262.2 26.6 L 262.2 31.7 Q 265.7 28.6 269.75 26.6 A 19.385 19.385 0 0 1 276.265 24.741 A 24.052 24.052 0 0 1 278.9 24.6 Q 282.4 24.6 285.05 25.55 A 9.494 9.494 0 0 1 288.387 27.636 A 12.504 12.504 0 0 1 289.7 29.1 A 16.11 16.11 0 0 1 291.151 31.325 Q 291.936 32.796 292.25 34.25 Q 292.8 36.8 292.8 39.4 L 292.8 65.5 A 2.336 2.336 0 0 0 292.882 66.139 A 1.545 1.545 0 0 0 293.75 67.15 A 12.118 12.118 0 0 0 295.393 67.782 A 13.759 13.759 0 0 0 295.8 67.9 A 15.408 15.408 0 0 1 296.974 68.269 A 12.364 12.364 0 0 1 297.8 68.6 Q 298.535 68.927 298.67 69.72 A 2.269 2.269 0 0 1 298.7 70.1 A 0.894 0.894 0 0 1 298.633 70.418 Q 298.469 70.845 297.901 71.448 A 3.881 3.881 0 0 1 297.9 71.45 A 2.378 2.378 0 0 1 297.009 72.031 Q 296.622 72.18 296.139 72.247 A 6.177 6.177 0 0 1 295.3 72.3 L 280.8 72.3 A 3.172 3.172 0 0 1 280.269 72.259 Q 279.992 72.212 279.781 72.11 A 1.11 1.11 0 0 1 279.25 71.6 A 3.792 3.792 0 0 1 279.027 71.058 Q 278.93 70.754 278.907 70.471 A 2.137 2.137 0 0 1 278.9 70.3 Q 278.9 69.8 279.55 69.35 A 9.334 9.334 0 0 1 280.345 68.86 A 12.098 12.098 0 0 1 281.05 68.5 Q 281.9 68.1 282.75 67.75 Q 283.592 67.403 283.993 67.204 A 6.232 6.232 0 0 0 284 67.2 L 284 43.2 Q 284 36.2 281.45 33.3 A 8.168 8.168 0 0 0 275.512 30.413 A 10.143 10.143 0 0 0 275 30.4 A 17.407 17.407 0 0 0 270.955 30.895 A 21.716 21.716 0 0 0 268.75 31.55 A 17.071 17.071 0 0 0 265.059 33.359 A 14.78 14.78 0 0 0 263.2 34.8 L 263.2 64.9 A 3.313 3.313 0 0 0 263.281 65.659 Q 263.397 66.155 263.683 66.498 A 1.836 1.836 0 0 0 264.25 66.95 A 9.254 9.254 0 0 0 265.812 67.588 A 11.133 11.133 0 0 0 266.6 67.8 Q 267.9 68.1 268.95 68.5 Q 269.812 68.828 269.966 69.696 A 2.307 2.307 0 0 1 270 70.1 Q 270 72.22 266.842 72.297 A 9.951 9.951 0 0 1 266.6 72.3 L 251.2 72.3 A 3.172 3.172 0 0 1 250.669 72.259 Q 250.392 72.212 250.181 72.11 A 1.11 1.11 0 0 1 249.65 71.6 A 3.792 3.792 0 0 1 249.427 71.058 Q 249.33 70.754 249.307 70.471 A 2.137 2.137 0 0 1 249.3 70.3 Q 249.3 69.8 249.95 69.35 Q 250.6 68.9 251.5 68.5 Q 252.4 68.1 253.3 67.75 Q 254.166 67.413 254.569 67.215 A 4.764 4.764 0 0 0 254.6 67.2 Z M 418.4 67.2 L 418.4 34.3 A 19.68 19.68 0 0 1 415.603 33.514 A 23.436 23.436 0 0 1 414.3 33 Q 412.2 32.1 412.2 31.4 Q 412.2 30.668 412.842 29.91 A 5.318 5.318 0 0 1 413.4 29.35 Q 414.6 28.3 416.35 27.5 A 24.419 24.419 0 0 1 419.481 26.328 A 27.455 27.455 0 0 1 420.1 26.15 A 18.187 18.187 0 0 1 421.53 25.815 Q 422.238 25.681 422.869 25.63 A 9.202 9.202 0 0 1 423.6 25.6 A 7.339 7.339 0 0 1 424.383 25.638 Q 425.157 25.722 425.565 25.988 A 0.936 0.936 0 0 1 426 26.6 L 426 31.7 Q 429.5 28.6 433.55 26.6 A 19.385 19.385 0 0 1 440.065 24.741 A 24.052 24.052 0 0 1 442.7 24.6 Q 446.2 24.6 448.85 25.55 A 9.494 9.494 0 0 1 452.187 27.636 A 12.504 12.504 0 0 1 453.5 29.1 A 16.11 16.11 0 0 1 454.951 31.325 Q 455.736 32.796 456.05 34.25 Q 456.6 36.8 456.6 39.4 L 456.6 65.5 A 2.336 2.336 0 0 0 456.682 66.139 A 1.545 1.545 0 0 0 457.55 67.15 A 12.118 12.118 0 0 0 459.193 67.782 A 13.759 13.759 0 0 0 459.6 67.9 A 15.408 15.408 0 0 1 460.774 68.269 A 12.364 12.364 0 0 1 461.6 68.6 Q 462.335 68.927 462.47 69.72 A 2.269 2.269 0 0 1 462.5 70.1 A 0.894 0.894 0 0 1 462.433 70.418 Q 462.269 70.845 461.701 71.448 A 3.881 3.881 0 0 1 461.7 71.45 A 2.378 2.378 0 0 1 460.809 72.031 Q 460.422 72.18 459.939 72.247 A 6.177 6.177 0 0 1 459.1 72.3 L 444.6 72.3 A 3.172 3.172 0 0 1 444.069 72.259 Q 443.792 72.212 443.581 72.11 A 1.11 1.11 0 0 1 443.05 71.6 A 3.792 3.792 0 0 1 442.827 71.058 Q 442.73 70.754 442.707 70.471 A 2.137 2.137 0 0 1 442.7 70.3 Q 442.7 69.8 443.35 69.35 A 9.334 9.334 0 0 1 444.145 68.86 A 12.098 12.098 0 0 1 444.85 68.5 Q 445.7 68.1 446.55 67.75 Q 447.392 67.403 447.793 67.204 A 6.232 6.232 0 0 0 447.8 67.2 L 447.8 43.2 Q 447.8 36.2 445.25 33.3 A 8.168 8.168 0 0 0 439.312 30.413 A 10.143 10.143 0 0 0 438.8 30.4 A 17.407 17.407 0 0 0 434.755 30.895 A 21.716 21.716 0 0 0 432.55 31.55 A 17.071 17.071 0 0 0 428.859 33.359 A 14.78 14.78 0 0 0 427 34.8 L 427 64.9 A 3.313 3.313 0 0 0 427.081 65.659 Q 427.197 66.155 427.483 66.498 A 1.836 1.836 0 0 0 428.05 66.95 A 9.254 9.254 0 0 0 429.612 67.588 A 11.133 11.133 0 0 0 430.4 67.8 Q 431.7 68.1 432.75 68.5 Q 433.612 68.828 433.766 69.696 A 2.307 2.307 0 0 1 433.8 70.1 Q 433.8 72.22 430.642 72.297 A 9.951 9.951 0 0 1 430.4 72.3 L 415 72.3 A 3.172 3.172 0 0 1 414.469 72.259 Q 414.192 72.212 413.981 72.11 A 1.11 1.11 0 0 1 413.45 71.6 A 3.792 3.792 0 0 1 413.227 71.058 Q 413.13 70.754 413.107 70.471 A 2.137 2.137 0 0 1 413.1 70.3 Q 413.1 69.8 413.75 69.35 Q 414.4 68.9 415.3 68.5 Q 416.2 68.1 417.1 67.75 Q 417.966 67.413 418.369 67.215 A 4.764 4.764 0 0 0 418.4 67.2 Z M 551.6 67.2 L 551.6 34.3 A 19.68 19.68 0 0 1 548.803 33.514 A 23.436 23.436 0 0 1 547.5 33 Q 545.4 32.1 545.4 31.4 Q 545.4 30.668 546.042 29.91 A 5.318 5.318 0 0 1 546.6 29.35 Q 547.8 28.3 549.55 27.5 A 24.419 24.419 0 0 1 552.681 26.328 A 27.455 27.455 0 0 1 553.3 26.15 A 18.187 18.187 0 0 1 554.73 25.815 Q 555.438 25.681 556.069 25.63 A 9.202 9.202 0 0 1 556.8 25.6 A 7.339 7.339 0 0 1 557.583 25.638 Q 558.357 25.722 558.765 25.988 A 0.936 0.936 0 0 1 559.2 26.6 L 559.2 31.7 Q 562.7 28.6 566.75 26.6 A 19.385 19.385 0 0 1 573.265 24.741 A 24.052 24.052 0 0 1 575.9 24.6 Q 579.4 24.6 582.05 25.55 A 9.494 9.494 0 0 1 585.387 27.636 A 12.504 12.504 0 0 1 586.7 29.1 A 16.11 16.11 0 0 1 588.151 31.325 Q 588.936 32.796 589.25 34.25 Q 589.8 36.8 589.8 39.4 L 589.8 65.5 A 2.336 2.336 0 0 0 589.882 66.139 A 1.545 1.545 0 0 0 590.75 67.15 A 12.118 12.118 0 0 0 592.393 67.782 A 13.759 13.759 0 0 0 592.8 67.9 A 15.408 15.408 0 0 1 593.974 68.269 A 12.364 12.364 0 0 1 594.8 68.6 Q 595.535 68.927 595.67 69.72 A 2.269 2.269 0 0 1 595.7 70.1 A 0.894 0.894 0 0 1 595.633 70.418 Q 595.469 70.845 594.901 71.448 A 3.881 3.881 0 0 1 594.9 71.45 A 2.378 2.378 0 0 1 594.009 72.031 Q 593.622 72.18 593.139 72.247 A 6.177 6.177 0 0 1 592.3 72.3 L 577.8 72.3 A 3.172 3.172 0 0 1 577.269 72.259 Q 576.992 72.212 576.781 72.11 A 1.11 1.11 0 0 1 576.25 71.6 A 3.792 3.792 0 0 1 576.027 71.058 Q 575.93 70.754 575.907 70.471 A 2.137 2.137 0 0 1 575.9 70.3 Q 575.9 69.8 576.55 69.35 A 9.334 9.334 0 0 1 577.345 68.86 A 12.098 12.098 0 0 1 578.05 68.5 Q 578.9 68.1 579.75 67.75 Q 580.592 67.403 580.993 67.204 A 6.232 6.232 0 0 0 581 67.2 L 581 43.2 Q 581 36.2 578.45 33.3 A 8.168 8.168 0 0 0 572.512 30.413 A 10.143 10.143 0 0 0 572 30.4 A 17.407 17.407 0 0 0 567.955 30.895 A 21.716 21.716 0 0 0 565.75 31.55 A 17.071 17.071 0 0 0 562.059 33.359 A 14.78 14.78 0 0 0 560.2 34.8 L 560.2 64.9 A 3.313 3.313 0 0 0 560.281 65.659 Q 560.397 66.155 560.683 66.498 A 1.836 1.836 0 0 0 561.25 66.95 A 9.254 9.254 0 0 0 562.812 67.588 A 11.133 11.133 0 0 0 563.6 67.8 Q 564.9 68.1 565.95 68.5 Q 566.812 68.828 566.966 69.696 A 2.307 2.307 0 0 1 567 70.1 Q 567 72.22 563.842 72.297 A 9.951 9.951 0 0 1 563.6 72.3 L 548.2 72.3 A 3.172 3.172 0 0 1 547.669 72.259 Q 547.392 72.212 547.181 72.11 A 1.11 1.11 0 0 1 546.65 71.6 A 3.792 3.792 0 0 1 546.427 71.058 Q 546.33 70.754 546.307 70.471 A 2.137 2.137 0 0 1 546.3 70.3 Q 546.3 69.8 546.95 69.35 Q 547.6 68.9 548.5 68.5 Q 549.4 68.1 550.3 67.75 Q 551.166 67.413 551.569 67.215 A 4.764 4.764 0 0 0 551.6 67.2 Z M 602.2 67.9 A 29.977 29.977 0 0 0 602.261 66.848 Q 602.285 66.259 602.295 65.587 A 61.526 61.526 0 0 0 602.3 64.75 A 40.778 40.778 0 0 1 602.371 62.301 A 34.541 34.541 0 0 1 602.45 61.25 A 10.376 10.376 0 0 1 602.648 59.947 Q 602.832 59.115 603.15 58.45 A 2.318 2.318 0 0 1 603.563 57.837 Q 604.08 57.3 604.9 57.3 Q 605.398 57.3 605.793 57.817 A 2.52 2.52 0 0 1 605.95 58.05 A 9.324 9.324 0 0 1 606.361 58.819 Q 606.552 59.218 606.733 59.678 A 15.969 15.969 0 0 1 606.8 59.85 Q 607.2 60.9 607.55 61.9 A 22.069 22.069 0 0 0 607.764 62.486 Q 607.994 63.088 608.2 63.5 A 6.665 6.665 0 0 0 609.32 64.965 Q 609.929 65.579 610.755 66.168 A 17.428 17.428 0 0 0 612.5 67.25 Q 615.7 69 619.8 69 Q 622.4 69 624.65 67.4 Q 626.9 65.8 626.9 62.9 A 7.115 7.115 0 0 0 626.562 60.66 A 5.921 5.921 0 0 0 625.1 58.3 A 16.628 16.628 0 0 0 622.663 56.304 A 21.384 21.384 0 0 0 620.65 55.1 A 58.662 58.662 0 0 0 616.794 53.246 A 69.09 69.09 0 0 0 614.9 52.45 Q 611.8 51.2 609.15 49.5 Q 606.5 47.8 604.7 45.35 A 8.96 8.96 0 0 1 603.2 41.977 Q 602.919 40.734 602.901 39.293 A 15.828 15.828 0 0 1 602.9 39.1 A 12.373 12.373 0 0 1 603.509 35.17 A 11.148 11.148 0 0 1 604.5 33 Q 606.1 30.3 608.65 28.45 A 19.605 19.605 0 0 1 614.003 25.728 A 22.139 22.139 0 0 1 614.4 25.6 A 21.632 21.632 0 0 1 619.241 24.655 A 19.487 19.487 0 0 1 620.7 24.6 A 29.33 29.33 0 0 1 623.812 24.753 Q 627.485 25.147 629.5 26.55 Q 631.942 28.251 632.254 29.99 A 2.883 2.883 0 0 1 632.3 30.5 L 632.3 33.05 A 22.057 22.057 0 0 1 632.124 35.868 A 20.327 20.327 0 0 1 632.1 36.05 A 10.086 10.086 0 0 1 631.888 37.154 Q 631.745 37.718 631.542 38.193 A 5.622 5.622 0 0 1 631.4 38.5 A 2.161 2.161 0 0 1 631.049 39.017 A 1.507 1.507 0 0 1 629.9 39.5 Q 629.3 39.5 628.75 38.7 Q 628.2 37.9 627.8 37 A 15.797 15.797 0 0 1 627.297 35.747 A 20.9 20.9 0 0 1 626.9 34.5 Q 626 32.2 623.85 31.15 Q 621.7 30.1 616.1 30.1 Q 613.9 30.1 612.15 31.35 A 3.823 3.823 0 0 0 610.785 33.2 Q 610.538 33.871 610.45 34.708 A 9.444 9.444 0 0 0 610.4 35.7 A 6.166 6.166 0 0 0 610.871 38.138 A 5.846 5.846 0 0 0 612.2 40.05 A 16.031 16.031 0 0 0 614.381 41.811 A 21.948 21.948 0 0 0 616.75 43.2 Q 619.5 44.6 622.7 45.95 Q 625.9 47.3 628.65 49.15 Q 631.4 51 633.2 53.55 Q 634.953 56.034 634.999 59.799 A 16.673 16.673 0 0 1 635 60 A 11.884 11.884 0 0 1 634.507 63.48 A 10.262 10.262 0 0 1 633.35 66 Q 631.7 68.6 629.05 70.35 A 19.885 19.885 0 0 1 624.282 72.633 A 23.159 23.159 0 0 1 623.05 73 Q 619.7 73.9 616.4 73.9 A 17.983 17.983 0 0 1 613.757 73.697 A 21.701 21.701 0 0 1 612.4 73.45 Q 610.3 73 608.3 72.25 Q 606.3 71.5 604.7 70.35 A 12.427 12.427 0 0 1 603.394 69.277 Q 602.736 68.653 602.262 67.989 A 7.635 7.635 0 0 1 602.2 67.9 Z M 95.9 44.8 L 95.9 42.6 Q 95.9 40.2 95.6 37.8 A 12.292 12.292 0 0 0 94.463 33.906 A 11.637 11.637 0 0 0 94.2 33.4 A 6.057 6.057 0 0 0 92.987 31.928 A 5.065 5.065 0 0 0 90.95 30.85 A 15.705 15.705 0 0 0 87.275 30.305 A 14.601 14.601 0 0 0 86.9 30.3 Q 84.675 30.3 83.264 30.402 A 20.638 20.638 0 0 0 82.7 30.45 Q 81.37 30.583 80.63 30.913 A 2.81 2.81 0 0 0 80.45 31 A 1.967 1.967 0 0 0 79.972 31.349 A 1.545 1.545 0 0 0 79.55 32.15 A 6.187 6.187 0 0 0 79.471 32.672 Q 79.41 33.217 79.401 33.954 A 21.178 21.178 0 0 0 79.4 34.2 A 8.702 8.702 0 0 0 79.416 34.753 Q 79.468 35.563 79.686 35.873 A 0.577 0.577 0 0 0 79.75 35.95 A 1.156 1.156 0 0 1 80.1 36.784 A 1.423 1.423 0 0 1 80.1 36.8 A 2.218 2.218 0 0 1 79.927 37.638 Q 79.765 38.038 79.45 38.45 A 6.791 6.791 0 0 1 78.083 39.784 A 7.755 7.755 0 0 1 77.85 39.95 A 8.816 8.816 0 0 1 75.822 40.975 A 9.777 9.777 0 0 1 75.75 41 Q 74.6 41.4 73.6 41.4 Q 72.495 41.4 71.806 41.089 A 1.808 1.808 0 0 1 70.8 40.05 A 9.857 9.857 0 0 1 70.505 39.125 Q 70.383 38.659 70.334 38.244 A 4.6 4.6 0 0 1 70.3 37.7 A 5.319 5.319 0 0 1 70.963 35.178 Q 71.366 34.422 72.012 33.676 A 11.328 11.328 0 0 1 72.65 33 A 24.935 24.935 0 0 1 75.793 30.41 A 31.75 31.75 0 0 1 78.35 28.8 Q 81.7 26.9 85.3 25.75 A 30.875 30.875 0 0 1 87.645 25.095 Q 88.801 24.824 89.816 24.702 A 13.225 13.225 0 0 1 91.4 24.6 A 22.4 22.4 0 0 1 94.104 24.754 Q 95.514 24.925 96.695 25.29 A 10.644 10.644 0 0 1 98.25 25.9 A 11.592 11.592 0 0 1 100.46 27.295 A 9.028 9.028 0 0 1 102.3 29.3 Q 103.7 31.4 104.2 34.05 Q 104.7 36.7 104.7 39.4 L 104.7 68 A 6.004 6.004 0 0 0 106.114 67.824 A 7.644 7.644 0 0 0 107 67.55 A 6.916 6.916 0 0 1 108.95 67.116 A 6.414 6.414 0 0 1 109.4 67.1 Q 110.223 67.1 110.626 67.324 A 0.827 0.827 0 0 1 110.85 67.5 Q 111.165 67.86 111.197 68.464 A 2.628 2.628 0 0 1 111.2 68.6 Q 111.2 68.962 110.544 69.694 A 8.92 8.92 0 0 1 110.4 69.85 Q 109.803 70.484 108.844 71.146 A 17.007 17.007 0 0 1 108.15 71.6 A 16.459 16.459 0 0 1 106.376 72.549 A 21.307 21.307 0 0 1 104.8 73.2 A 11.36 11.36 0 0 1 101.998 73.832 A 13.972 13.972 0 0 1 100.6 73.9 A 7.598 7.598 0 0 1 98.929 73.724 A 5.852 5.852 0 0 1 97.3 73.1 Q 95.9 72.3 95.9 70.4 L 95.9 66.6 Q 93.3 69.8 90.2 71.85 A 12.176 12.176 0 0 1 85.51 73.669 A 16.4 16.4 0 0 1 82.7 73.9 Q 79 73.9 76.35 72.8 A 14.223 14.223 0 0 1 74.017 71.582 A 10.825 10.825 0 0 1 72.05 69.95 A 11.705 11.705 0 0 1 70.305 67.585 A 10.225 10.225 0 0 1 69.65 66.15 A 12.631 12.631 0 0 1 69.044 63.891 A 10.26 10.26 0 0 1 68.9 62.2 A 14.608 14.608 0 0 1 69.34 58.53 A 11.263 11.263 0 0 1 71.2 54.6 Q 73.5 51.5 77.3 49.45 A 31.36 31.36 0 0 1 82.46 47.259 A 39.01 39.01 0 0 1 85.95 46.3 Q 90.8 45.2 95.9 44.8 Z M 228.3 44.8 L 228.3 42.6 Q 228.3 40.2 228 37.8 A 12.292 12.292 0 0 0 226.863 33.906 A 11.637 11.637 0 0 0 226.6 33.4 A 6.057 6.057 0 0 0 225.387 31.928 A 5.065 5.065 0 0 0 223.35 30.85 A 15.705 15.705 0 0 0 219.675 30.305 A 14.601 14.601 0 0 0 219.3 30.3 Q 217.075 30.3 215.664 30.402 A 20.638 20.638 0 0 0 215.1 30.45 Q 213.77 30.583 213.03 30.913 A 2.81 2.81 0 0 0 212.85 31 A 1.967 1.967 0 0 0 212.372 31.349 A 1.545 1.545 0 0 0 211.95 32.15 A 6.187 6.187 0 0 0 211.871 32.672 Q 211.81 33.217 211.801 33.954 A 21.178 21.178 0 0 0 211.8 34.2 A 8.702 8.702 0 0 0 211.816 34.753 Q 211.868 35.563 212.086 35.873 A 0.577 0.577 0 0 0 212.15 35.95 A 1.156 1.156 0 0 1 212.5 36.784 A 1.423 1.423 0 0 1 212.5 36.8 A 2.218 2.218 0 0 1 212.327 37.638 Q 212.165 38.038 211.85 38.45 A 6.791 6.791 0 0 1 210.483 39.784 A 7.755 7.755 0 0 1 210.25 39.95 A 8.816 8.816 0 0 1 208.222 40.975 A 9.777 9.777 0 0 1 208.15 41 Q 207 41.4 206 41.4 Q 204.895 41.4 204.206 41.089 A 1.808 1.808 0 0 1 203.2 40.05 A 9.857 9.857 0 0 1 202.905 39.125 Q 202.783 38.659 202.734 38.244 A 4.6 4.6 0 0 1 202.7 37.7 A 5.319 5.319 0 0 1 203.363 35.178 Q 203.766 34.422 204.412 33.676 A 11.328 11.328 0 0 1 205.05 33 A 24.935 24.935 0 0 1 208.193 30.41 A 31.75 31.75 0 0 1 210.75 28.8 Q 214.1 26.9 217.7 25.75 A 30.875 30.875 0 0 1 220.045 25.095 Q 221.201 24.824 222.216 24.702 A 13.225 13.225 0 0 1 223.8 24.6 A 22.4 22.4 0 0 1 226.504 24.754 Q 227.914 24.925 229.095 25.29 A 10.644 10.644 0 0 1 230.65 25.9 A 11.592 11.592 0 0 1 232.86 27.295 A 9.028 9.028 0 0 1 234.7 29.3 Q 236.1 31.4 236.6 34.05 Q 237.1 36.7 237.1 39.4 L 237.1 68 A 6.004 6.004 0 0 0 238.514 67.824 A 7.644 7.644 0 0 0 239.4 67.55 A 6.916 6.916 0 0 1 241.35 67.116 A 6.414 6.414 0 0 1 241.8 67.1 Q 242.623 67.1 243.026 67.324 A 0.827 0.827 0 0 1 243.25 67.5 Q 243.565 67.86 243.597 68.464 A 2.628 2.628 0 0 1 243.6 68.6 Q 243.6 68.962 242.944 69.694 A 8.92 8.92 0 0 1 242.8 69.85 Q 242.203 70.484 241.244 71.146 A 17.007 17.007 0 0 1 240.55 71.6 A 16.459 16.459 0 0 1 238.776 72.549 A 21.307 21.307 0 0 1 237.2 73.2 A 11.36 11.36 0 0 1 234.398 73.832 A 13.972 13.972 0 0 1 233 73.9 A 7.598 7.598 0 0 1 231.329 73.724 A 5.852 5.852 0 0 1 229.7 73.1 Q 228.3 72.3 228.3 70.4 L 228.3 66.6 Q 225.7 69.8 222.6 71.85 A 12.176 12.176 0 0 1 217.91 73.669 A 16.4 16.4 0 0 1 215.1 73.9 Q 211.4 73.9 208.75 72.8 A 14.223 14.223 0 0 1 206.417 71.582 A 10.825 10.825 0 0 1 204.45 69.95 A 11.705 11.705 0 0 1 202.705 67.585 A 10.225 10.225 0 0 1 202.05 66.15 A 12.631 12.631 0 0 1 201.444 63.891 A 10.26 10.26 0 0 1 201.3 62.2 A 14.608 14.608 0 0 1 201.74 58.53 A 11.263 11.263 0 0 1 203.6 54.6 Q 205.9 51.5 209.7 49.45 A 31.36 31.36 0 0 1 214.86 47.259 A 39.01 39.01 0 0 1 218.35 46.3 Q 223.2 45.2 228.3 44.8 Z M 400.7 50.2 L 373.6 50.2 Q 373.8 53.6 374.65 56.8 A 20.274 20.274 0 0 0 376.11 60.699 A 17.571 17.571 0 0 0 377.15 62.5 Q 378.8 65 381.35 66.55 A 10.624 10.624 0 0 0 385.554 67.991 A 13.57 13.57 0 0 0 387.3 68.1 A 41.469 41.469 0 0 0 389.476 68.046 Q 391.719 67.928 393.3 67.55 A 32.807 32.807 0 0 0 394.913 67.123 Q 395.674 66.9 396.32 66.661 A 15.19 15.19 0 0 0 397.1 66.35 A 52.226 52.226 0 0 0 398.162 65.877 Q 398.682 65.637 399.133 65.413 A 26.591 26.591 0 0 0 399.65 65.15 Q 400.7 64.6 401.9 64.6 A 2.614 2.614 0 0 1 402.411 64.645 Q 403.213 64.806 403.291 65.535 A 1.541 1.541 0 0 1 403.3 65.7 A 2.652 2.652 0 0 1 403.038 66.813 Q 402.673 67.606 401.8 68.45 Q 400.3 69.9 397.75 71.15 Q 395.2 72.4 391.85 73.15 A 31.671 31.671 0 0 1 385.834 73.885 A 35.795 35.795 0 0 1 384.8 73.9 A 26.204 26.204 0 0 1 380.44 73.555 Q 377.98 73.14 375.922 72.224 A 16.208 16.208 0 0 1 375.65 72.1 A 18.963 18.963 0 0 1 371.178 69.221 A 16.953 16.953 0 0 1 369.3 67.3 A 19.578 19.578 0 0 1 365.676 60.596 A 22.288 22.288 0 0 1 365.6 60.35 Q 364.4 56.4 364.4 52.1 Q 364.4 46.3 366 41.3 A 28.629 28.629 0 0 1 368.604 35.427 A 24.693 24.693 0 0 1 370.55 32.6 Q 373.5 28.9 377.75 26.75 A 20.159 20.159 0 0 1 385.598 24.653 A 24.136 24.136 0 0 1 387.2 24.6 A 23.472 23.472 0 0 1 390.847 24.866 Q 392.76 25.167 394.324 25.81 A 11.482 11.482 0 0 1 396.3 26.85 Q 399.7 29.1 401.55 32.6 Q 403.4 36.1 404 40.25 Q 404.6 44.4 404.7 48.3 Q 404.7 49.684 403.593 49.961 A 2.124 2.124 0 0 1 403.4 50 A 17.608 17.608 0 0 1 400.918 50.199 A 19.436 19.436 0 0 1 400.7 50.2 Z M 341.4 64.6 L 341.4 12 A 2.72 2.72 0 0 0 341.071 11.835 Q 340.591 11.63 339.8 11.45 Q 338.7 11.2 337.65 10.8 Q 336.6 10.4 335.8 9.95 Q 335 9.5 335 8.9 A 2.668 2.668 0 0 1 335.041 8.452 Q 335.119 7.998 335.343 7.418 A 8.528 8.528 0 0 1 335.35 7.4 Q 335.69 6.525 336.835 6.501 A 3.109 3.109 0 0 1 336.9 6.5 L 354.1 6.5 A 6.019 6.019 0 0 1 355.033 6.567 Q 355.511 6.642 355.89 6.802 A 2.34 2.34 0 0 1 356.7 7.35 Q 357.5 8.2 357.5 8.7 A 2.008 2.008 0 0 1 357.393 9.377 Q 357.193 9.937 356.624 10.245 A 2.309 2.309 0 0 1 356.4 10.35 A 14.773 14.773 0 0 1 354.793 10.898 A 17.606 17.606 0 0 1 354 11.1 Q 352.7 11.4 351.55 11.85 Q 350.49 12.265 350.322 13.317 A 2.457 2.457 0 0 0 350.3 13.5 L 350.3 63.6 A 78.449 78.449 0 0 1 350.223 67.163 Q 350.136 69.077 349.95 70.75 A 20.398 20.398 0 0 1 349.252 74.279 A 16.951 16.951 0 0 1 348.45 76.45 A 14.548 14.548 0 0 1 345.762 80.433 A 17.03 17.03 0 0 1 345.1 81.1 Q 343.297 82.821 340.488 84.407 A 36.945 36.945 0 0 1 339.2 85.1 Q 337.689 85.856 337.025 86.031 A 2.417 2.417 0 0 1 336.95 86.05 A 5.851 5.851 0 0 1 336.09 86.185 A 5.008 5.008 0 0 1 335.7 86.2 A 0.689 0.689 0 0 1 335.208 85.984 Q 334.941 85.724 334.75 85.15 Q 334.481 84.342 334.419 83.86 A 2.055 2.055 0 0 1 334.4 83.6 A 1.671 1.671 0 0 1 334.508 83.037 Q 334.683 82.548 335.145 81.959 A 7.799 7.799 0 0 1 335.4 81.65 Q 336.4 80.5 337.5 79.1 Q 338.325 78.069 338.961 77.25 A 94.107 94.107 0 0 0 339.5 76.55 Q 340.3 75.5 340.7 74.1 A 11.852 11.852 0 0 0 340.955 72.99 Q 341.154 71.909 341.25 70.5 A 52.082 52.082 0 0 0 341.329 68.979 Q 341.395 67.266 341.4 64.935 A 177.648 177.648 0 0 0 341.4 64.6 Z M 120.8 66.6 L 120.8 32.1 L 116.6 32.1 A 1.145 1.145 0 0 1 116.229 31.868 A 1.05 1.05 0 0 1 115.95 31.4 A 4.001 4.001 0 0 1 115.85 30.996 Q 115.8 30.731 115.8 30.5 A 3.122 3.122 0 0 1 115.831 30.041 Q 115.917 29.468 116.236 29.199 A 0.907 0.907 0 0 1 116.3 29.15 Q 116.8 28.8 117.6 28.35 Q 118.205 28.01 118.952 27.47 A 24.448 24.448 0 0 0 119.45 27.1 A 5.877 5.877 0 0 0 120.178 26.432 Q 120.878 25.681 121.6 24.5 A 9.831 9.831 0 0 0 122.19 23.16 Q 122.441 22.462 122.632 21.653 A 16.96 16.96 0 0 0 122.7 21.35 Q 123.1 19.5 123.55 17.8 A 16.349 16.349 0 0 1 123.982 16.408 Q 124.228 15.731 124.515 15.159 A 9.365 9.365 0 0 1 124.65 14.9 A 2.992 2.992 0 0 1 125.051 14.32 A 1.751 1.751 0 0 1 126.4 13.7 Q 127.2 13.7 128.15 13.8 A 9.337 9.337 0 0 1 128.591 13.856 Q 129.019 13.922 129.294 14.016 A 1.649 1.649 0 0 1 129.5 14.1 L 129.5 26.5 L 139 26.5 Q 139.921 26.5 140.365 26.751 A 0.85 0.85 0 0 1 140.65 27 A 1.831 1.831 0 0 1 140.921 27.606 Q 140.984 27.855 140.997 28.148 A 3.464 3.464 0 0 1 141 28.3 A 3.754 3.754 0 0 1 140.724 29.685 Q 140.515 30.213 140.15 30.75 Q 139.3 32 137.9 32.1 L 129.5 32.1 L 129.5 57.6 A 218.179 218.179 0 0 0 129.506 59.3 Q 129.525 61.7 129.6 63.2 A 16.209 16.209 0 0 0 129.684 64.246 Q 129.8 65.252 130.036 65.916 A 3.79 3.79 0 0 0 130.15 66.2 A 2.523 2.523 0 0 0 130.558 66.845 A 1.964 1.964 0 0 0 131.55 67.45 A 5.904 5.904 0 0 0 132.208 67.579 Q 133.048 67.7 134.3 67.7 A 8.028 8.028 0 0 0 136.062 67.496 A 10.325 10.325 0 0 0 137.25 67.15 Q 138.8 66.6 140.5 66.6 A 4.567 4.567 0 0 1 141.056 66.631 Q 141.638 66.703 141.932 66.941 A 0.772 0.772 0 0 1 142.2 67.35 A 18.759 18.759 0 0 1 142.268 67.612 Q 142.368 68.008 142.392 68.198 A 0.827 0.827 0 0 1 142.4 68.3 A 2.018 2.018 0 0 1 142.013 69.467 Q 141.791 69.788 141.44 70.092 A 5.382 5.382 0 0 1 140.9 70.5 A 11.699 11.699 0 0 1 139.358 71.358 Q 138.363 71.823 137.15 72.2 A 27.051 27.051 0 0 1 134.201 72.931 A 33.642 33.642 0 0 1 132.2 73.25 Q 129.5 73.6 127.2 73.6 A 6.342 6.342 0 0 1 122.888 71.924 A 8.174 8.174 0 0 1 122.75 71.8 A 5.798 5.798 0 0 1 121.086 68.969 Q 120.8 67.902 120.8 66.6 Z M 524.8 66.9 L 524.8 34.3 A 20.408 20.408 0 0 1 523.628 34.028 A 26.1 26.1 0 0 1 522.65 33.75 A 24.022 24.022 0 0 1 521.42 33.34 A 19.063 19.063 0 0 1 520.55 33 A 15.433 15.433 0 0 1 519.828 32.675 Q 519.49 32.512 519.202 32.348 A 8.125 8.125 0 0 1 518.95 32.2 A 2.642 2.642 0 0 1 518.685 32.016 Q 518.417 31.801 518.335 31.586 A 0.523 0.523 0 0 1 518.3 31.4 Q 518.3 30.668 518.942 29.91 A 5.318 5.318 0 0 1 519.5 29.35 A 10.159 10.159 0 0 1 520.932 28.312 A 14.011 14.011 0 0 1 522.5 27.5 Q 524.3 26.7 526.3 26.15 A 17.121 17.121 0 0 1 527.97 25.775 Q 528.806 25.633 529.557 25.606 A 9.688 9.688 0 0 1 529.9 25.6 Q 530.786 25.6 531.866 25.794 A 15.462 15.462 0 0 1 531.9 25.8 Q 532.788 25.961 533.089 26.383 A 0.813 0.813 0 0 1 533.2 26.6 L 533.2 64.9 A 3.158 3.158 0 0 0 533.287 65.669 A 1.872 1.872 0 0 0 534.3 66.95 A 10.501 10.501 0 0 0 536.22 67.679 A 11.988 11.988 0 0 0 536.7 67.8 A 22.129 22.129 0 0 1 538.247 68.214 A 18.175 18.175 0 0 1 539.1 68.5 Q 540.035 68.84 540.175 69.757 A 2.264 2.264 0 0 1 540.2 70.1 Q 540.2 72.22 537.042 72.297 A 9.951 9.951 0 0 1 536.8 72.3 L 520.2 72.3 A 3.172 3.172 0 0 1 519.669 72.259 Q 519.392 72.212 519.181 72.11 A 1.11 1.11 0 0 1 518.65 71.6 A 3.792 3.792 0 0 1 518.427 71.058 Q 518.33 70.754 518.307 70.471 A 2.137 2.137 0 0 1 518.3 70.3 A 0.73 0.73 0 0 1 518.42 69.913 Q 518.609 69.607 519.1 69.3 Q 519.848 68.832 520.859 68.408 A 17.307 17.307 0 0 1 521 68.35 A 35.425 35.425 0 0 1 522.622 67.731 A 31.832 31.832 0 0 1 523.15 67.55 A 21.264 21.264 0 0 0 523.762 67.336 Q 524.388 67.106 524.8 66.9 Z M 373.6 45.7 L 394.8 45 Q 394.7 41.9 394.3 39.15 A 16.463 16.463 0 0 0 393.771 36.737 A 12.169 12.169 0 0 0 392.8 34.4 A 8.171 8.171 0 0 0 389.73 31.276 A 9.738 9.738 0 0 0 389.6 31.2 A 8.273 8.273 0 0 0 387.514 30.38 Q 386.529 30.131 385.366 30.045 A 17.24 17.24 0 0 0 384.1 30 A 8.825 8.825 0 0 0 380.505 30.706 Q 378.505 31.588 377.11 33.568 A 11.212 11.212 0 0 0 376.55 34.45 A 20.337 20.337 0 0 0 374.632 39.138 Q 373.813 42.088 373.6 45.7 Z M 95.9 62.9 L 95.9 49.4 A 51.957 51.957 0 0 0 91.908 49.703 A 61.428 61.428 0 0 0 90 49.95 Q 86.9 50.4 84.3 51.4 A 12.49 12.49 0 0 0 81.66 52.778 A 10.486 10.486 0 0 0 80 54.2 A 6.118 6.118 0 0 0 78.42 57.437 A 8.57 8.57 0 0 0 78.3 58.9 A 13.216 13.216 0 0 0 78.656 62.042 A 9.824 9.824 0 0 0 80.3 65.6 A 5.805 5.805 0 0 0 82.755 67.469 Q 84.69 68.294 87.655 68.3 A 21.545 21.545 0 0 0 87.7 68.3 A 6.143 6.143 0 0 0 89.696 67.948 Q 90.79 67.573 91.95 66.8 A 14.8 14.8 0 0 0 95.341 63.646 A 17.274 17.274 0 0 0 95.9 62.9 Z M 228.3 62.9 L 228.3 49.4 A 51.957 51.957 0 0 0 224.308 49.703 A 61.428 61.428 0 0 0 222.4 49.95 Q 219.3 50.4 216.7 51.4 A 12.49 12.49 0 0 0 214.06 52.778 A 10.486 10.486 0 0 0 212.4 54.2 A 6.118 6.118 0 0 0 210.82 57.437 A 8.57 8.57 0 0 0 210.7 58.9 A 13.216 13.216 0 0 0 211.056 62.042 A 9.824 9.824 0 0 0 212.7 65.6 A 5.805 5.805 0 0 0 215.155 67.469 Q 217.09 68.294 220.055 68.3 A 21.545 21.545 0 0 0 220.1 68.3 A 6.143 6.143 0 0 0 222.096 67.948 Q 223.19 67.573 224.35 66.8 A 14.8 14.8 0 0 0 227.741 63.646 A 17.274 17.274 0 0 0 228.3 62.9 Z M 527.448 16.823 A 14.686 14.686 0 0 0 529 16.9 Q 530 16.9 531.05 16.3 Q 532.1 15.7 532.95 14.85 Q 533.8 14 534.35 13 Q 534.9 12 534.9 11.1 Q 534.9 10.072 533.983 8.936 A 8.42 8.42 0 0 0 533.2 8.1 A 4.115 4.115 0 0 0 532.447 7.544 Q 530.654 6.5 527.1 6.5 A 3.257 3.257 0 0 0 525.975 6.706 A 4.351 4.351 0 0 0 525.1 7.15 Q 524.1 7.8 523.3 8.75 Q 522.5 9.7 522 10.8 A 7.475 7.475 0 0 0 521.764 11.379 Q 521.636 11.737 521.57 12.058 A 3.199 3.199 0 0 0 521.5 12.7 Q 521.5 13 521.85 13.7 A 3.305 3.305 0 0 0 522.012 13.987 Q 522.198 14.281 522.463 14.575 A 6.369 6.369 0 0 0 523 15.1 A 4.731 4.731 0 0 0 523.538 15.503 Q 524.246 15.964 525.3 16.35 A 7.426 7.426 0 0 0 525.977 16.561 Q 526.654 16.738 527.448 16.823 Z" vector-effect="non-scaling-stroke"/></g></svg>