<?xml version="1.0" encoding="utf-8"?>
<!-- Svg Vector Icons : http://www.onlinewebfonts.com/icon -->
<!DOCTYPE svg PUBLIC "-//W3C//DTD SVG 1.1//EN" "http://www.w3.org/Graphics/SVG/1.1/DTD/svg11.dtd">
<svg version="1.1" xmlns="http://www.w3.org/2000/svg" xmlns:xlink="http://www.w3.org/1999/xlink" x="0px" y="0px" viewBox="0 0 1000 1000" enable-background="new 0 0 1000 1000" xml:space="preserve" height="512">
<g><g><g id="_x34__24_"><g><path fill='DarkSlateGray' d="M261.6,646.2L92.1,509.1L261.6,372c12.9-12.5,12.9-32.9,0-45.4s-33.7-12.5-46.6,0L19.4,484.8c-6.9,6.7-9.8,15.6-9.3,24.3c-0.5,8.8,2.4,17.6,9.3,24.3L215,691.6c12.9,12.5,33.7,12.5,46.6,0C274.5,679.1,274.5,658.7,261.6,646.2z M727.3,79.6c-15.6-8.9-35.6-3.6-44.6,11.7L274.4,877.9c-9,15.3-5.3,38.7,12,43.7c21.1,6.1,35.6,3.6,44.6-11.7l408.2-786.7C748.3,107.9,742.9,88.4,727.3,79.6z M980.6,484.8L785,326.6c-12.9-12.5-33.7-12.5-46.6,0c-12.9,12.5-12.9,32.9,0,45.4l169.5,137.1L738.4,646.2c-12.9,12.5-12.9,32.9,0,45.4c12.9,12.5,33.7,12.5,46.6,0l195.7-158.2c6.9-6.7,9.8-15.6,9.3-24.3C990.4,500.4,987.5,491.5,980.6,484.8z"/></g></g></g><g></g><g></g><g></g><g></g><g></g><g></g><g></g><g></g><g></g><g></g><g></g><g></g><g></g><g></g><g></g></g>
</svg>